<?xml version="1.0" encoding="UTF-8"?>
<svg id="Calque_1" data-name="Calque 1" xmlns="http://www.w3.org/2000/svg" version="1.1" viewBox="0 0 595.3 841.9">
  <defs>
    <style>
      .cls-1 {
        fill: #26bced;
      }

      .cls-1, .cls-2, .cls-3, .cls-4, .cls-5 {
        stroke-miterlimit: 10;
      }

      .cls-1, .cls-4 {
        stroke: #26bced;
      }

      .cls-6 {
        fill: #1d1d1b;
        stroke-width: 0px;
      }

      .cls-6, .cls-2, .cls-3, .cls-5 {
        display: none;
      }

      .cls-2, .cls-3, .cls-4, .cls-5 {
        fill: none;
      }

      .cls-2, .cls-3, .cls-5 {
        stroke: #1d1d1b;
      }

      .cls-3 {
        stroke-width: 2px;
      }

      .cls-4 {
        stroke-width: 18px;
      }

      .cls-5 {
        font-family: TwCenMT-CondensedExtraBold, 'Tw Cen MT Condensed Extra Bold';
        font-size: 250px;
        font-weight: 700;
      }
    </style>
  </defs>
  <text class="cls-5" transform="translate(209.5 481.3)"><tspan x="0" y="0">G</tspan></text>
  <path class="cls-2" d="M298.3,365.5s.2-6.1-12.9-14.5-24.2,17.9-24.2,17.9c0,0-5.7,49.6,0,61.1s10.2,18.6,17.3,19,18.9-3.2,19.8-11.5,2.2-16,2.2-16"/>
  <ellipse class="cls-2" cx="279.9" cy="398.9" rx="21.1" ry="48.3"/>
  <path class="cls-2" d="M266,445.5c-4.2,25.7-11.4,42.6-19.5,42.6s-15.3-16.9-19.5-42.6h39Z"/>
  <path class="cls-3" d="M246.5,355h0c-12.6,0-22.9,10-23.3,22.6-.2,4.4-.2,9-.2,13.6,0,14,.7,27.4,2,39.4.9,8.5,8.1,14.9,16.6,14.9h7c8.9,0,16.1-7.2,16.1-16.1v-13.7h0c0-5.7-4.6-10.3-10.3-10.3h-10.5"/>
  <path class="cls-2" d="M268.8,350.8c0,1-.2,2-.6,3-.3-2.6-.5-5.2-.9-7.7.9,1.5,1.4,3.1,1.4,4.7Z"/>
  <circle class="cls-6" cx="246.5" cy="355" r="1.1"/>
  <circle class="cls-6" cx="244.5" cy="405.3" r="1.8"/>
  <circle class="cls-6" cx="243.8" cy="355" r="2.8"/>
  <circle class="cls-1" cx="459.9" cy="264.9" r="14.4"/>
  <circle class="cls-1" cx="311.1" cy="507.3" r="14.4"/>
  <circle class="cls-1" cx="185.9" cy="264.9" r="14.4"/>
  <circle class="cls-1" cx="502.3" cy="77" r="14.4"/>
  <circle class="cls-1" cx="311.1" cy="443.4" r="14.4"/>
  <circle class="cls-1" cx="311.1" cy="385.3" r="14.4"/>
  <path class="cls-4" d="M507.1,746.3h-207.3c-112.5,0-203.6-91.2-203.6-203.6v-260.5c0-113.3,91.8-205.1,205.1-205.1h205.9"/>
  <path class="cls-4" d="M459.9,468.9v72.9c0,88-71.3,159.3-159.3,159.3h0c-88,0-159.3-71.3-159.3-159.3v-267c0-88,71.3-159.3,159.3-159.3h0c88,0,159.3,71.3,159.3,159.3"/>
  <polyline class="cls-4" points="459.9 474.7 459.9 443.4 300.5 443.4"/>
  <line class="cls-4" x1="507.9" y1="385.3" x2="311.1" y2="385.3"/>
  <line class="cls-4" x1="504.9" y1="376.4" x2="504.9" y2="755.4"/>
  <polyline class="cls-4" points="185.9 264.9 185.9 507.3 311.1 507.3"/>
</svg>